<svg width="15" height="15" viewBox="0 0 15 15" fill="none" xmlns="http://www.w3.org/2000/svg">
<rect width="15" height="15" fill="#1E1E1E"/>
<g clip-path="url(#clip0_0_1)">
<rect width="1280" height="832" transform="translate(-1227.14 -504)" fill="white"/>
<rect x="-885.326" y="-430.977" width="938.188" height="671.465" fill="#F9F9F9"/>
<path d="M-352.873 -53.6331C-352.873 -64.6788 -343.919 -73.6331 -332.873 -73.6331H11.0002C22.0459 -73.6331 31.0002 -64.6788 31.0002 -53.6331V26.3669H-332.873C-343.919 26.3669 -352.873 17.4126 -352.873 6.36694V-53.6331Z" fill="#EFEFEF"/>
<path fill-rule="evenodd" clip-rule="evenodd" d="M10.2257 3.77306C10.4538 3.49143 10.4104 3.07818 10.1288 2.85006C9.84715 2.62193 9.43391 2.66531 9.20578 2.94695L3.99292 9.38255L1.86582 7.26944C1.60869 7.01401 1.19318 7.01538 0.937752 7.2725C0.682319 7.52963 0.68369 7.94514 0.940814 8.20057L3.5832 10.8256C3.71486 10.9564 3.89576 11.0253 4.08108 11.0153C4.2664 11.0053 4.43883 10.9173 4.55564 10.7731L10.2257 3.77306ZM14.1477 3.79145C14.386 3.51835 14.3578 3.1038 14.0847 2.86552C13.8116 2.62724 13.397 2.65546 13.1588 2.92856L7.50851 9.40446L7.11276 9.01642C6.85397 8.76268 6.43848 8.76677 6.18473 9.02556C5.93099 9.28435 5.93508 9.69984 6.19387 9.95359L7.08627 10.8286C7.21527 10.9551 7.39072 11.0228 7.57125 11.0158C7.75178 11.0087 7.92143 10.9276 8.0402 10.7914L14.1477 3.79145Z" fill="#34B7F1"/>
</g>
<defs>
<clipPath id="clip0_0_1">
<rect width="1280" height="832" fill="white" transform="translate(-1227.14 -504)"/>
</clipPath>
</defs>
</svg>
