<svg width="23" height="24" viewBox="0 0 23 24" fill="none" xmlns="http://www.w3.org/2000/svg">
<path d="M11.4992 22.6259C17.3745 22.6259 22.1373 17.863 22.1373 11.9877C22.1373 6.11246 17.3745 1.34961 11.4992 1.34961C5.62393 1.34961 0.861084 6.11246 0.861084 11.9877C0.861084 17.863 5.62393 22.6259 11.4992 22.6259Z" stroke="#C0BFBF" stroke-width="1.18417" stroke-linecap="round" stroke-linejoin="round"/>
<path d="M7.51019 11.1012C8.24459 11.1012 8.83995 10.5059 8.83995 9.77148C8.83995 9.03707 8.24459 8.44171 7.51019 8.44171C6.77578 8.44171 6.18042 9.03707 6.18042 9.77148C6.18042 10.5059 6.77578 11.1012 7.51019 11.1012Z" fill="#C0BFBF"/>
<path d="M15.4889 11.1012C16.2234 11.1012 16.8187 10.5059 16.8187 9.77148C16.8187 9.03707 16.2234 8.44171 15.4889 8.44171C14.7545 8.44171 14.1592 9.03707 14.1592 9.77148C14.1592 10.5059 14.7545 11.1012 15.4889 11.1012Z" fill="#C0BFBF"/>
<path d="M16.1096 14.6472C15.641 15.4546 14.9685 16.1247 14.1595 16.5906C13.3505 17.0564 12.4333 17.3016 11.4997 17.3016C10.5662 17.3016 9.64903 17.0564 8.84002 16.5906C8.03101 16.1247 7.35854 15.4546 6.88989 14.6472" stroke="#C0BFBF" stroke-width="1.18417" stroke-linecap="round" stroke-linejoin="round"/>
</svg>
